<svg width="90" height="90" viewBox="0 0 90 90" fill="none" xmlns="http://www.w3.org/2000/svg">
<circle cx="45" cy="45" r="44" fill="black"/>
<circle cx="44.995" cy="45" r="31" stroke="#F1F2F6" stroke-width="2"/>
<path d="M44.995 9V19" stroke="#F1F2F6" stroke-width="2" stroke-linecap="round"/>
<path d="M44.995 71V81" stroke="#F1F2F6" stroke-width="2" stroke-linecap="round"/>
<path d="M81 44.995L71 44.995" stroke="#F1F2F6" stroke-width="2" stroke-linecap="round"/>
<path d="M19 44.995L9 44.995" stroke="#F1F2F6" stroke-width="2" stroke-linecap="round"/>
<path d="M44.995 9V19" stroke="#F1F2F6" stroke-width="2" stroke-linecap="round"/>
<path d="M44.995 71V81" stroke="#F1F2F6" stroke-width="2" stroke-linecap="round"/>
<path d="M81 44.995L71 44.995" stroke="#F1F2F6" stroke-width="2" stroke-linecap="round"/>
<path d="M19 44.995L9 44.995" stroke="#F1F2F6" stroke-width="2" stroke-linecap="round"/>
<path d="M59.995 19L57.9957 22.4808" stroke="#F1F2F6" stroke-linecap="round"/>
<path d="M31.9957 67.5142L29.995 71" stroke="#F1F2F6" stroke-linecap="round"/>
<path d="M70.995 30L67.5123 31.9975" stroke="#F1F2F6" stroke-linecap="round"/>
<path d="M22.479 57.9975L18.995 60" stroke="#F1F2F6" stroke-linecap="round"/>
<path d="M70.995 60L67.5123 57.9975" stroke="#F1F2F6" stroke-linecap="round"/>
<path d="M22.479 31.9975L18.995 30" stroke="#F1F2F6" stroke-linecap="round"/>
<path d="M59.995 71L57.9957 67.5142" stroke="#F1F2F6" stroke-linecap="round"/>
<path d="M31.9957 22.4808L29.995 19" stroke="#F1F2F6" stroke-linecap="round"/>
<path d="M65.5 44.5L32 86L30 85.5L36 57H25L33.5 24H61.5L52.5 44.5H65.5Z" fill="black" stroke="black" stroke-linejoin="round"/>
<path d="M59.61 25.5H34.7775L26.5 55.6H37.7875L31.4967 84.195L62.62 45.8175H50.58L59.61 25.5Z" fill="#8A8ED1" fill-opacity="0.5" stroke="#8A8ED1" stroke-width="3" stroke-linejoin="round"/>
<path d="M41.55 32.2725L37.035 47.3225" stroke="white" stroke-width="3" stroke-linecap="round"/>
</svg>
